REM MD5 328bac38fdf2eb0de5adb4a426620861
FILE "Lady Maid (Japan).bin" BINARY
  TRACK 01 MODE2/2352
    INDEX 01 00:00:00
  TRACK 02 AUDIO
    INDEX 00 47:59:04
    INDEX 01 48:01:04
  TRACK 03 AUDIO
    INDEX 00 49:30:73
    INDEX 01 49:32:73
  TRACK 04 AUDIO
    INDEX 00 52:15:60
    INDEX 01 52:17:60
REM LEADOUT 55:17:60
